<svg width="106" height="106" viewBox="0 0 106 106" fill="none" xmlns="http://www.w3.org/2000/svg">
<g clip-path="url(#clip0_96_147)">
<path d="M39.8003 16.4731C39.8003 12.8981 36.9296 10 33.3884 10C29.8473 10 26.9766 12.8981 26.9766 16.4731V61.5269C26.9766 65.1019 29.8473 68 33.3884 68C36.9296 68 39.8003 65.1019 39.8003 61.5269V16.4731Z" fill="url(#paint0_linear_96_147)"/>
<path d="M59.4097 23.8159C59.4097 20.2409 56.539 17.3428 52.9978 17.3428C49.4566 17.3428 46.5859 20.2409 46.5859 23.8159V54.1838C46.5859 57.7588 49.4566 60.6569 52.9978 60.6569C56.539 60.6569 59.4097 57.7588 59.4097 54.1838V23.8159Z" fill="url(#paint1_linear_96_147)"/>
<path d="M79.0268 35.4321C79.0268 31.8571 76.1562 28.959 72.615 28.959C69.0738 28.959 66.2031 31.8571 66.2031 35.4321V42.5727C66.2031 46.1477 69.0738 49.0458 72.615 49.0458C76.1562 49.0458 79.0268 46.1477 79.0268 42.5727V35.4321Z" fill="url(#paint2_linear_96_147)"/>
</g>
<path d="M20.672 90H17.904L15.248 85.68L12.592 90H10L13.792 84.112L10.24 78.576H12.912L15.376 82.688L17.792 78.576H20.4L16.816 84.24L20.672 90ZM20.6719 81.264H23.2799L24.9279 86.176C24.9812 86.336 25.0239 86.496 25.0559 86.656C25.0985 86.816 25.1305 86.9813 25.1519 87.152C25.1839 87.3227 25.2052 87.504 25.2159 87.696H25.2639C25.2959 87.4187 25.3385 87.1573 25.3919 86.912C25.4559 86.656 25.5252 86.4107 25.5999 86.176L27.2159 81.264H29.7759L26.0799 91.12C25.8559 91.7173 25.5625 92.2187 25.1999 92.624C24.8479 93.0293 24.4372 93.3333 23.9679 93.536C23.4985 93.7387 22.9865 93.84 22.4319 93.84C22.1652 93.84 21.9305 93.824 21.7279 93.792C21.5359 93.7707 21.3652 93.744 21.2159 93.712V91.824C21.3332 91.8453 21.4719 91.8667 21.6319 91.888C21.8025 91.9093 21.9785 91.92 22.1599 91.92C22.4905 91.92 22.7732 91.8507 23.0079 91.712C23.2532 91.5733 23.4559 91.3813 23.6159 91.136C23.7759 90.9013 23.9039 90.6453 23.9999 90.368L24.1439 89.936L20.6719 81.264ZM33.4133 90H31.0293V77.84H33.4133V90ZM43.8403 85.616C43.8403 86.3413 43.7389 86.9867 43.5363 87.552C43.3443 88.1173 43.0616 88.5973 42.6883 88.992C42.3256 89.376 41.8829 89.6693 41.3603 89.872C40.8376 90.064 40.2456 90.16 39.5843 90.16C38.9763 90.16 38.4109 90.064 37.8883 89.872C37.3763 89.6693 36.9336 89.376 36.5603 88.992C36.1869 88.5973 35.8936 88.1173 35.6803 87.552C35.4776 86.9867 35.3763 86.3413 35.3763 85.616C35.3763 84.6453 35.5469 83.8293 35.8883 83.168C36.2296 82.496 36.7203 81.984 37.3603 81.632C38.0003 81.28 38.7576 81.104 39.6323 81.104C40.4536 81.104 41.1789 81.28 41.8083 81.632C42.4376 81.984 42.9336 82.496 43.2963 83.168C43.6589 83.8293 43.8403 84.6453 43.8403 85.616ZM37.8083 85.616C37.8083 86.192 37.8669 86.6773 37.9843 87.072C38.1123 87.456 38.3096 87.7493 38.5763 87.952C38.8429 88.144 39.1896 88.24 39.6163 88.24C40.0429 88.24 40.3843 88.144 40.6403 87.952C40.9069 87.7493 41.0989 87.456 41.2163 87.072C41.3443 86.6773 41.4083 86.192 41.4083 85.616C41.4083 85.04 41.3443 84.56 41.2163 84.176C41.0989 83.792 40.9069 83.504 40.6403 83.312C40.3736 83.12 40.0269 83.024 39.6003 83.024C38.9709 83.024 38.5123 83.2427 38.2243 83.68C37.9469 84.1067 37.8083 84.752 37.8083 85.616ZM50.6745 81.104C51.6558 81.104 52.4505 81.488 53.0585 82.256C53.6665 83.0133 53.9705 84.1333 53.9705 85.616C53.9705 86.608 53.8265 87.4453 53.5385 88.128C53.2505 88.8 52.8558 89.3067 52.3545 89.648C51.8532 89.9893 51.2718 90.16 50.6105 90.16C50.1945 90.16 49.8318 90.1067 49.5225 90C49.2238 89.8933 48.9678 89.7547 48.7545 89.584C48.5412 89.4133 48.3545 89.232 48.1945 89.04H48.0665C48.1092 89.2427 48.1412 89.456 48.1625 89.68C48.1838 89.8933 48.1945 90.1067 48.1945 90.32V93.84H45.8105V81.264H47.7465L48.0825 82.4H48.1945C48.3545 82.1653 48.5465 81.952 48.7705 81.76C48.9945 81.5573 49.2612 81.3973 49.5705 81.28C49.8905 81.1627 50.2585 81.104 50.6745 81.104ZM49.9065 83.008C49.4905 83.008 49.1598 83.0933 48.9145 83.264C48.6692 83.4347 48.4878 83.696 48.3705 84.048C48.2638 84.3893 48.2052 84.8213 48.1945 85.344V85.6C48.1945 86.1653 48.2478 86.6453 48.3545 87.04C48.4612 87.424 48.6425 87.7173 48.8985 87.92C49.1545 88.1227 49.5012 88.224 49.9385 88.224C50.3012 88.224 50.5998 88.1227 50.8345 87.92C51.0692 87.7173 51.2452 87.4187 51.3625 87.024C51.4798 86.6293 51.5385 86.1493 51.5385 85.584C51.5385 84.7307 51.4052 84.0907 51.1385 83.664C50.8825 83.2267 50.4718 83.008 49.9065 83.008ZM58.3195 80.32C58.3195 80.7467 58.3035 81.1573 58.2715 81.552C58.2502 81.9467 58.2288 82.224 58.2075 82.384H58.3355C58.5275 82.0853 58.7515 81.8453 59.0075 81.664C59.2635 81.472 59.5462 81.3333 59.8555 81.248C60.1755 81.152 60.5115 81.104 60.8635 81.104C61.4928 81.104 62.0422 81.216 62.5115 81.44C62.9808 81.664 63.3435 82.0107 63.5995 82.48C63.8662 82.9493 63.9995 83.5573 63.9995 84.304V90H61.6155V84.896C61.6155 84.2667 61.4982 83.7973 61.2635 83.488C61.0395 83.168 60.6875 83.008 60.2075 83.008C59.7275 83.008 59.3488 83.12 59.0715 83.344C58.8048 83.568 58.6128 83.8933 58.4955 84.32C58.3782 84.7467 58.3195 85.2693 58.3195 85.888V90H55.9355V77.84H58.3195V80.32ZM74.3871 85.616C74.3871 86.3413 74.2858 86.9867 74.0831 87.552C73.8911 88.1173 73.6085 88.5973 73.2351 88.992C72.8725 89.376 72.4298 89.6693 71.9071 89.872C71.3845 90.064 70.7925 90.16 70.1311 90.16C69.5231 90.16 68.9578 90.064 68.4351 89.872C67.9231 89.6693 67.4805 89.376 67.1071 88.992C66.7338 88.5973 66.4405 88.1173 66.2271 87.552C66.0245 86.9867 65.9231 86.3413 65.9231 85.616C65.9231 84.6453 66.0938 83.8293 66.4351 83.168C66.7765 82.496 67.2671 81.984 67.9071 81.632C68.5471 81.28 69.3045 81.104 70.1791 81.104C71.0005 81.104 71.7258 81.28 72.3551 81.632C72.9845 81.984 73.4805 82.496 73.8431 83.168C74.2058 83.8293 74.3871 84.6453 74.3871 85.616ZM68.3551 85.616C68.3551 86.192 68.4138 86.6773 68.5311 87.072C68.6591 87.456 68.8565 87.7493 69.1231 87.952C69.3898 88.144 69.7365 88.24 70.1631 88.24C70.5898 88.24 70.9311 88.144 71.1871 87.952C71.4538 87.7493 71.6458 87.456 71.7631 87.072C71.8911 86.6773 71.9551 86.192 71.9551 85.616C71.9551 85.04 71.8911 84.56 71.7631 84.176C71.6458 83.792 71.4538 83.504 71.1871 83.312C70.9205 83.12 70.5738 83.024 70.1471 83.024C69.5178 83.024 69.0591 83.2427 68.7711 83.68C68.4938 84.1067 68.3551 84.752 68.3551 85.616ZM81.3174 81.104C82.256 81.104 83.008 81.36 83.5734 81.872C84.1387 82.3733 84.4214 83.184 84.4214 84.304V90H82.0374V84.896C82.0374 84.2667 81.9254 83.7973 81.7014 83.488C81.4774 83.168 81.12 83.008 80.6294 83.008C79.904 83.008 79.408 83.2587 79.1414 83.76C78.8747 84.2507 78.7414 84.96 78.7414 85.888V90H76.3574V81.264H78.1814L78.5014 82.384H78.6294C78.8214 82.0853 79.056 81.8453 79.3334 81.664C79.6107 81.472 79.92 81.3333 80.2614 81.248C80.6027 81.152 80.9547 81.104 81.3174 81.104ZM90.473 81.104C91.2837 81.104 91.977 81.2587 92.553 81.568C93.1397 81.8773 93.593 82.3253 93.913 82.912C94.233 83.4987 94.393 84.2187 94.393 85.072V86.224H88.761C88.7823 86.896 88.9797 87.424 89.353 87.808C89.737 88.192 90.265 88.384 90.937 88.384C91.5023 88.384 92.0143 88.3307 92.473 88.224C92.9317 88.1067 93.4063 87.9307 93.897 87.696V89.536C93.4703 89.7493 93.017 89.904 92.537 90C92.0677 90.1067 91.497 90.16 90.825 90.16C89.9503 90.16 89.177 90 88.505 89.68C87.833 89.3493 87.305 88.8533 86.921 88.192C86.537 87.5307 86.345 86.6987 86.345 85.696C86.345 84.672 86.5157 83.824 86.857 83.152C87.209 82.4693 87.6943 81.9573 88.313 81.616C88.9317 81.2747 89.6517 81.104 90.473 81.104ZM90.489 82.8C90.0303 82.8 89.6463 82.9493 89.337 83.248C89.0383 83.5467 88.8623 84.0107 88.809 84.64H92.153C92.153 84.288 92.089 83.9733 91.961 83.696C91.8437 83.4187 91.6623 83.2 91.417 83.04C91.1717 82.88 90.8623 82.8 90.489 82.8Z" fill="#F6F6F6"/>
<defs>
<linearGradient id="paint0_linear_96_147" x1="33.3884" y1="4.39275" x2="33.3884" y2="67.0363" gradientUnits="userSpaceOnUse">
<stop offset="0.04" stop-color="#C100E6"/>
<stop offset="1" stop-color="#00F0FF"/>
</linearGradient>
<linearGradient id="paint1_linear_96_147" x1="52.9978" y1="13.1553" x2="52.9978" y2="59.9372" gradientUnits="userSpaceOnUse">
<stop offset="0.04" stop-color="#C100E6"/>
<stop offset="1" stop-color="#00F0FF"/>
</linearGradient>
<linearGradient id="paint2_linear_96_147" x1="72.615" y1="27.0171" x2="72.615" y2="48.7121" gradientUnits="userSpaceOnUse">
<stop offset="0.04" stop-color="#C100E6"/>
<stop offset="1" stop-color="#00F0FF"/>
</linearGradient>
<clipPath id="clip0_96_147">
<rect width="52.0513" height="58" fill="white" transform="translate(26.9766 10)"/>
</clipPath>
</defs>
</svg>
