<?xml version="1.0" encoding="utf-8"?>
<!-- Generator: Adobe Illustrator 27.5.0, SVG Export Plug-In . SVG Version: 6.00 Build 0)  -->
<svg version="1.1" id="Camada_1" xmlns="http://www.w3.org/2000/svg" xmlns:xlink="http://www.w3.org/1999/xlink" x="0px" y="0px"
	 viewBox="0 0 326.9 176.5" style="enable-background:new 0 0 326.9 176.5;" xml:space="preserve">
<style type="text/css">
	.st0{fill:#DADBDA;}
	.st1{fill:url(#SVGID_1_);}
	.st2{fill:url(#SVGID_00000072964664393692739050000013654993896689596811_);}
	.st3{fill:url(#SVGID_00000109715178853400303330000003193175558169645215_);}
	.st4{fill:url(#SVGID_00000125603030408962653280000016298265852629965475_);}
	.st5{fill:url(#SVGID_00000064329491265925594190000013838343163615763103_);}
	.st6{fill:url(#SVGID_00000050664901068845740940000011472813056023978652_);}
	.st7{fill:url(#SVGID_00000111180265449391588850000000334039332095717822_);}
	.st8{fill:url(#SVGID_00000177443909841568123380000004272082553292849820_);}
	.st9{fill:url(#SVGID_00000064321874637115208920000004642104601579771548_);}
</style>
<path d="M60.7,0v98.3c0,2-1.6,3.6-3.6,3.6H36.5c-2,0-3.6-1.6-3.6-3.6V0H60.7z"/>
<path d="M106.9,0v98.3c0,2-1.6,3.6-3.6,3.6H82.7c-2,0-3.6-1.6-3.6-3.6V0H106.9z"/>
<path d="M294.6,0v98.3c0,2-1.6,3.6-3.6,3.6h-20.5c-2,0-3.6-1.6-3.6-3.6V0H294.6z"/>
<path d="M246.9,0v98.3c0,2-1.6,3.6-3.6,3.6h-20.5c-2,0-3.6-1.6-3.6-3.6V0H246.9z"/>
<path d="M200.9,0v98.3c0,2-1.6,3.6-3.6,3.6h-20.5c-2,0-3.6-1.6-3.6-3.6V0H200.9z"/>
<g>
	<path class="st0" d="M46.8,171.1v5.4H18.6c-10,0-18.1-7.9-18.5-17.8c0.3,6.9,6,12.3,13,12.3h33.4c0.1,0,0.2,0,0.2-0.1v0.1H46.8z"/>
	<linearGradient id="SVGID_1_" gradientUnits="userSpaceOnUse" x1="0" y1="85.5363" x2="46.79" y2="85.5363">
		<stop  offset="0" style="stop-color:#FDFDFD"/>
		<stop  offset="1" style="stop-color:#DADBDA"/>
	</linearGradient>
	<path class="st1" d="M46.8,101.9v68.8c0,0.1,0,0.2-0.1,0.2c-0.1,0.1-0.1,0.1-0.2,0.1H13c-7,0-12.7-5.5-13-12.3c0-0.2,0-0.5,0-0.7
		V13C0,5.8,5.8,0,13,0h19.8v98.3c0,2,1.6,3.6,3.6,3.6H46.8z"/>
</g>
<g>
	<rect x="46.8" y="171.1" class="st0" width="46.6" height="5.4"/>
	
		<linearGradient id="SVGID_00000036224546175685008910000012906607173356437651_" gradientUnits="userSpaceOnUse" x1="46.68" y1="85.5363" x2="93.35" y2="85.5363">
		<stop  offset="0" style="stop-color:#FDFDFD"/>
		<stop  offset="1" style="stop-color:#DADBDA"/>
	</linearGradient>
	<path style="fill:url(#SVGID_00000036224546175685008910000012906607173356437651_);" d="M93.3,101.9v69.2H46.7V171
		c0.1-0.1,0.1-0.2,0.1-0.2v-68.8H57c2,0,3.6-1.6,3.6-3.6V0h18.4v98.3c0,2,1.6,3.6,3.6,3.6H93.3z"/>
</g>
<g>
	<rect x="93.5" y="171.1" class="st0" width="46.6" height="5.4"/>
	
		<linearGradient id="SVGID_00000073719659181989008400000017796763737082668691_" gradientUnits="userSpaceOnUse" x1="93.47" y1="85.5363" x2="140.04" y2="85.5363">
		<stop  offset="0" style="stop-color:#FDFDFD"/>
		<stop  offset="1" style="stop-color:#DADBDA"/>
	</linearGradient>
	<path style="fill:url(#SVGID_00000073719659181989008400000017796763737082668691_);" d="M140,0v171.1H93.5v-69.2h9.8
		c2,0,3.6-1.6,3.6-3.6V0H140z"/>
</g>
<linearGradient id="SVGID_00000037660883012884434690000001963804405792615320_" gradientUnits="userSpaceOnUse" x1="140.04" y1="85.5363" x2="140.14" y2="85.5363">
	<stop  offset="0" style="stop-color:#FDFDFD"/>
	<stop  offset="1" style="stop-color:#F2F2F2"/>
</linearGradient>
<rect x="140" y="0" style="fill:url(#SVGID_00000037660883012884434690000001963804405792615320_);" width="0.1" height="171.1"/>
<g>
	<rect x="140.1" y="171.1" class="st0" width="46.6" height="5.4"/>
	
		<linearGradient id="SVGID_00000062882309366791793860000016165523314520995229_" gradientUnits="userSpaceOnUse" x1="140.14" y1="85.5363" x2="186.71" y2="85.5363">
		<stop  offset="0" style="stop-color:#FDFDFD"/>
		<stop  offset="1" style="stop-color:#DADBDA"/>
	</linearGradient>
	<path style="fill:url(#SVGID_00000062882309366791793860000016165523314520995229_);" d="M186.7,101.9v69.2h-46.6V0h33v98.3
		c0,2,1.6,3.6,3.6,3.6H186.7z"/>
</g>
<linearGradient id="SVGID_00000055704295307944797360000017196734734308639929_" gradientUnits="userSpaceOnUse" x1="140.04" y1="85.5363" x2="140.14" y2="85.5363">
	<stop  offset="0" style="stop-color:#FDFDFD"/>
	<stop  offset="1" style="stop-color:#F2F2F2"/>
</linearGradient>
<rect x="140" y="0" style="fill:url(#SVGID_00000055704295307944797360000017196734734308639929_);" width="0.1" height="171.1"/>
<g>
	<rect x="186.8" y="171.1" class="st0" width="46.6" height="5.4"/>
	
		<linearGradient id="SVGID_00000172401593246448127440000008430692507815342222_" gradientUnits="userSpaceOnUse" x1="186.82" y1="85.5363" x2="233.38" y2="85.5363">
		<stop  offset="0" style="stop-color:#FDFDFD"/>
		<stop  offset="1" style="stop-color:#DADBDA"/>
	</linearGradient>
	<path style="fill:url(#SVGID_00000172401593246448127440000008430692507815342222_);" d="M233.4,101.9v69.2h-46.6v-69.2h10.5
		c2,0,3.6-1.6,3.6-3.6V0h18.2v98.3c0,2,1.6,3.6,3.6,3.6H233.4z"/>
</g>
<g>
	<rect x="233.5" y="171.1" class="st0" width="46.6" height="5.4"/>
	
		<linearGradient id="SVGID_00000166663833732435506200000000715098376193942657_" gradientUnits="userSpaceOnUse" x1="233.5" y1="85.5363" x2="280.06" y2="85.5363">
		<stop  offset="0" style="stop-color:#FDFDFD"/>
		<stop  offset="1" style="stop-color:#DADBDA"/>
	</linearGradient>
	<path style="fill:url(#SVGID_00000166663833732435506200000000715098376193942657_);" d="M280.1,101.9v69.2h-46.6v-69.2h9.7
		c2,0,3.6-1.6,3.6-3.6V0h20v98.3c0,2,1.6,3.6,3.6,3.6H280.1z"/>
</g>
<g>
	<path class="st0" d="M326.8,158.7c-0.4,9.9-8.5,17.8-18.5,17.8h-28.1v-5.4h33.7C320.8,171.1,326.5,165.6,326.8,158.7z"/>
	
		<linearGradient id="SVGID_00000124873454947041754530000002876416858420063900_" gradientUnits="userSpaceOnUse" x1="280.17" y1="85.5363" x2="326.85" y2="85.5363">
		<stop  offset="0" style="stop-color:#FDFDFD"/>
		<stop  offset="1" style="stop-color:#DADBDA"/>
	</linearGradient>
	<path style="fill:url(#SVGID_00000124873454947041754530000002876416858420063900_);" d="M326.8,13v145c0,0.2,0,0.5,0,0.7
		c-0.4,6.9-6,12.3-13,12.3h-33.7v-69.2H291c2,0,3.6-1.6,3.6-3.6V0h19.2C321,0,326.8,5.8,326.8,13z"/>
</g>
</svg>
